# xmcd
#
# Track frame offsets:
#	150
#	13454
#	24395
#	37981
#	48442
#	59793
#	72367
#	82520
#	94646
#	108097
#	118213
#	130577
#	141333
#	152137
#	165324
#	176098
#	189637
#	202759
#	213460
#	225484
#	237260
#	248072
#	259340
#	269810
#	283730
#
# Disc length: 3950 seconds
# Revision: 0
# Processed by: cddbd v1.5.2PL0 Copyright (c) Steve Scherf et al.
# Submitted via: dBpowerAMP V12.0
#
DISCID=650f6c19
DTITLE=Various Artist - Let Me Tell You About The Blues - New York
DYEAR=1949
DGENRE=Blues
TTITLE0=Stick McGhee - Drank Up All The Wine Last Night
TTITLE1=Leroy Dallas - Your Sweet Man's Blues
TTITLE2=Grant Jones - They Call Me Mr Blues
TTITLE3=Duke Bayou and His Mystic Six - Rub A Little Boogie
TTITLE4=Curley Weaver - Some Rainy Day
TTITLE5=Brownie McGhee - I'm Gonna Move Cross The River
TTITLE6=H-Bomb Ferguson - Preachin' The Blues
TTITLE7=Danny ''Run Joe'' Taylor - Coffee Daddy Blues
TTITLE8=Country Paul - Side Walk Boogie
TTITLE9=Bob Gaddy - I (Believe You Got A Sidekick)
TTITLE10=Little Bobby Harris - Love, Love, Love
TTITLE11=Little Esther - Sit Back Down
TTITLE12=Square Walton - Pepper Head Woman
TTITLE13=Chuck Willis - I Feel So Bad
TTITLE14=Margie Day - Take Out Your False Teeth Daddy
TTITLE15=Larry Dale - Midnight Hours
TTITLE16=Big Maybelle - One Monkey Don't Stop No Show
TTITLE17=Tiny Kennedy - Country Boy
TTITLE18=Mr Bear and The Bearcats - I'm Gonna Keep My Good Eye On You
TTITLE19=Sonny Terry - Ride And Roll
TTITLE20=Big Connie - Mumbles Blues
TTITLE21=Screamin' Jay Hawkins - I Put A Spell On You
TTITLE22=Hurricane Harry - The Last Meal
TTITLE23=Champion Jack Dupree - Just Like A Woman
TTITLE24=Cousin Leroy - Waitin' At The Station
EXTD=
EXTT0=
EXTT1=
EXTT2=
EXTT3=
EXTT4=
EXTT5=
EXTT6=
EXTT7=
EXTT8=
EXTT9=
EXTT10=
EXTT11=
EXTT12=
EXTT13=
EXTT14=
EXTT15=
EXTT16=
EXTT17=
EXTT18=
EXTT19=
EXTT20=
EXTT21=
EXTT22=
EXTT23=
EXTT24=
PLAYORDER=
